<svg width="720" height="76" viewBox="0 0 720 76" fill="none" xmlns="http://www.w3.org/2000/svg">
<path d="M182.512 31.2172L177.778 16.7845H179.807L182.078 23.881C182.706 25.8469 183.237 27.5731 183.624 29.2993H183.672C184.058 27.6211 184.686 25.799 185.314 23.929L187.778 16.7845H189.807L184.59 31.2172H182.512Z" fill="#1A1F71"/>
<path d="M190.822 26.3744C190.87 28.9157 192.513 29.9706 194.397 29.9706C195.749 29.9706 196.571 29.7309 197.295 29.4432L197.633 30.7857C196.957 31.0734 195.798 31.4091 194.155 31.4091C190.918 31.4091 189.034 29.2993 189.034 26.1826C189.034 23.0659 190.87 20.5726 193.914 20.5726C197.343 20.5726 198.213 23.5454 198.213 25.4634C198.213 25.847 198.165 26.1347 198.165 26.3265L190.822 26.3744ZM196.377 25.0318C196.426 23.8331 195.894 21.9631 193.72 21.9631C191.788 21.9631 190.967 23.7372 190.822 25.0318H196.377Z" fill="#1A1F71"/>
<path d="M199.711 24.0729C199.711 22.8742 199.711 21.8193 199.614 20.8603H201.257L201.305 22.8742H201.401C201.885 21.4836 203.044 20.6205 204.3 20.6205C204.493 20.6205 204.686 20.6205 204.831 20.6685V22.4426C204.638 22.3947 204.445 22.3947 204.203 22.3947C202.851 22.3947 201.933 23.4016 201.643 24.7921C201.595 25.0319 201.546 25.3675 201.546 25.6552V31.1694H199.662V24.0729H199.711Z" fill="#1A1F71"/>
<path d="M208.116 17.9354C208.116 18.5588 207.682 19.0862 206.909 19.0862C206.232 19.0862 205.749 18.5588 205.749 17.9354C205.749 17.2641 206.232 16.7367 206.957 16.7367C207.633 16.7367 208.116 17.2641 208.116 17.9354ZM205.991 20.8603H207.875V31.2173H205.991V20.8603Z" fill="#1A1F71"/>
<path d="M210.387 31.2173V22.2987H208.938V20.8603H210.387V20.3808C210.387 18.9423 210.725 17.5997 211.595 16.7366C212.319 16.0653 213.237 15.7776 214.155 15.7776C214.831 15.7776 215.411 15.9215 215.798 16.0653L215.556 17.5038C215.266 17.36 214.88 17.2641 214.348 17.2641C212.754 17.2641 212.319 18.6546 212.319 20.2849V20.8603H214.831V22.2987H212.319V31.2173H210.387Z" fill="#1A1F71"/>
<path d="M218.744 17.9354C218.793 18.5588 218.31 19.0862 217.537 19.0862C216.86 19.0862 216.377 18.5588 216.377 17.9354C216.377 17.2641 216.86 16.7367 217.585 16.7367C218.31 16.7367 218.744 17.2641 218.744 17.9354ZM216.619 20.8603H218.503V31.2173H216.619V20.8603Z" fill="#1A1F71"/>
<path d="M221.885 26.3744C221.933 28.9157 223.575 29.9706 225.46 29.9706C226.812 29.9706 227.633 29.7309 228.358 29.4432L228.696 30.7857C228.02 31.0734 226.861 31.4091 225.218 31.4091C221.981 31.4091 220.097 29.2993 220.097 26.1826C220.097 23.0659 221.933 20.5726 224.976 20.5726C228.406 20.5726 229.276 23.5454 229.276 25.4634C229.276 25.847 229.228 26.1347 229.228 26.3265L221.885 26.3744ZM227.44 25.0318C227.44 23.8331 226.957 21.9631 224.783 21.9631C222.851 21.9631 222.03 23.7372 221.885 25.0318H227.44Z" fill="#1A1F71"/>
<path d="M239.807 16.0175V28.5322C239.807 29.4432 239.807 30.4981 239.904 31.2173H238.213L238.116 29.3953H238.068C237.488 30.5461 236.232 31.4091 234.493 31.4091C231.981 31.4091 230.049 29.2994 230.049 26.1347C230.049 22.6824 232.174 20.5726 234.735 20.5726C236.329 20.5726 237.392 21.3398 237.875 22.1549H237.923V16.0175H239.807ZM237.923 25.0798C237.923 24.8401 237.923 24.5045 237.827 24.2647C237.537 23.066 236.522 22.059 235.073 22.059C233.092 22.059 231.933 23.7852 231.933 26.0868C231.933 28.1965 232.947 29.9227 235.025 29.9227C236.281 29.9227 237.44 29.1076 237.827 27.6691C237.875 27.4294 237.923 27.1417 237.923 26.854V25.0798Z" fill="#1A1F71"/>
<path d="M246.812 31.2173C246.86 30.4981 246.909 29.4432 246.909 28.5322V16.0175H248.793V22.5385H248.841C249.518 21.3878 250.725 20.6206 252.416 20.6206C255.025 20.6206 256.861 22.7783 256.812 25.895C256.812 29.5871 254.445 31.4571 252.126 31.4571C250.629 31.4571 249.421 30.8817 248.648 29.4912H248.6L248.503 31.2173H246.812ZM248.793 27.0458C248.793 27.2855 248.841 27.5253 248.889 27.7171C249.276 29.0117 250.339 29.9227 251.74 29.9227C253.72 29.9227 254.928 28.2924 254.928 25.9429C254.928 23.8811 253.865 22.107 251.836 22.107C250.532 22.107 249.324 22.9701 248.938 24.4086C248.889 24.6004 248.841 24.8881 248.841 25.1757V27.0458H248.793V27.0458Z" fill="#1A1F71"/>
<path d="M258.89 20.8604L261.16 26.9978C261.402 27.6691 261.643 28.4843 261.836 29.1076H261.885C262.078 28.4843 262.271 27.6691 262.561 26.9499L264.638 20.8604H266.667L263.817 28.2445C262.464 31.7928 261.547 33.6148 260.242 34.7177C259.324 35.5328 258.406 35.8684 257.923 35.9164L257.44 34.3341C257.923 34.1902 258.551 33.9025 259.083 33.423C259.614 33.0394 260.242 32.2723 260.677 31.3133C260.774 31.1215 260.822 30.9776 260.822 30.8817C260.822 30.7858 260.774 30.642 260.677 30.4022L256.812 20.8604H258.89Z" fill="#1A1F71"/>
<path d="M209.276 38.2652L203.527 52.6979L201.208 40.4229C200.918 39.0324 199.856 38.2652 198.648 38.2652H189.227L189.083 38.8885C191.015 39.3201 193.189 39.9914 194.542 40.7106C195.363 41.1421 195.604 41.5257 195.846 42.5806L200.242 59.5067H206.136L215.121 38.2652H209.276V38.2652Z" fill="#1A1F71"/>
<path d="M217.488 38.2657L212.899 59.5072H218.455L222.996 38.2657H217.488Z" fill="#1A1F71"/>
<path d="M230.29 44.1635C230.29 43.3964 231.063 42.5812 232.658 42.3894C233.431 42.2935 235.653 42.1976 238.117 43.3484L239.083 38.8412C237.73 38.3617 236.039 37.8822 233.914 37.8822C228.455 37.8822 224.59 40.7591 224.542 44.9307C224.493 47.9995 227.295 49.6777 229.373 50.6846C231.546 51.7395 232.271 52.3628 232.223 53.3218C232.223 54.7603 230.484 55.3836 228.938 55.3836C226.136 55.4316 224.542 54.6165 223.237 54.0411L222.223 58.6921C223.527 59.2675 225.894 59.795 228.358 59.795C234.155 59.795 237.972 56.966 237.972 52.5067C238.068 46.9925 230.242 46.6569 230.29 44.1635Z" fill="#1A1F71"/>
<path d="M246.281 51.9792L249.228 44.0197L250.87 51.9792H246.281ZM248.406 38.2658C247.344 38.2658 246.426 38.8891 246.039 39.8002L237.73 59.4593H243.527L244.687 56.2947H251.788L252.464 59.4593H257.585L253.141 38.2178H248.406V38.2658V38.2658Z" fill="#1A1F71"/>
<path d="M675.317 39.6316C675.153 37.8086 674.216 36.8409 672.48 36.8409C671.074 36.8409 669.785 37.6061 669.503 39.6316H675.317ZM666.573 40.8023C666.573 36.2557 669.925 34.5907 672.504 34.5907C675.294 34.5907 677.967 36.1883 677.967 41.0491V41.7015H669.457C669.574 43.862 670.957 44.8069 672.786 44.8069C674.403 44.8069 675.341 44.2898 676.279 43.4124L677.803 44.8524C676.513 46.2251 674.802 47.0129 672.575 47.0129C669.457 47.0129 666.573 45.1903 666.573 40.8023ZM659.493 46.7652V37.0214H657.336V34.8154H659.493V33.601C659.493 31.598 660.36 30.0451 663.525 30.0451C664.065 30.0451 665.026 30.1352 665.236 30.1577V32.2952C665.049 32.2499 664.58 32.2053 664.252 32.2053C663.221 32.2053 662.376 32.4757 662.376 33.7585V34.8154H665.095V37.0214H662.376V46.7652H659.493ZM651.921 43.4349V40.8023C648.474 41.2519 646.646 42.0621 646.646 43.3669C646.646 44.3126 647.326 44.8069 648.381 44.8069C649.858 44.8069 651.007 44.2671 651.921 43.4349V43.4349ZM643.809 43.8845C643.809 41.2966 646.107 39.564 651.921 38.9339V38.5738C651.921 37.381 651.265 36.8639 649.882 36.8639C648.146 36.8639 646.74 37.6739 645.686 38.4843L644.279 36.7509C645.615 35.5811 647.702 34.5907 650.28 34.5907C653.609 34.5907 654.758 36.1212 654.758 38.9114V43.84C654.758 45.2803 654.851 46.158 655.109 46.7652H652.202C652.038 46.2703 651.921 45.9105 651.921 45.235C650.655 46.4731 649.178 46.9452 647.326 46.9452C645.31 46.9452 643.809 45.865 643.809 43.8845ZM628.15 42.8498L630.471 41.68C631.502 43.6371 633.096 44.5822 635.252 44.5822C637.362 44.5822 638.792 43.9297 638.792 42.4217C638.792 40.9814 637.714 40.3067 634.854 39.4965C631.502 38.5516 628.806 37.6739 628.806 34.5004C628.806 31.6655 631.221 29.7973 634.737 29.7973C638.159 29.7973 640.175 31.418 641.231 33.3751L639.097 34.7932C638.066 33.1276 636.589 32.3629 634.713 32.3629C632.791 32.3629 631.689 33.0383 631.689 34.2528C631.689 35.8061 632.932 36.3233 635.768 37.1334C639.05 38.0565 641.676 39.0914 641.676 42.2196C641.676 44.9428 639.261 47.0803 635.136 47.0803C631.689 47.0803 629.251 45.3696 628.15 42.8498" fill="#44474E"/>
<path d="M708.162 51.0411L708.631 49.4883C708.982 49.5785 709.593 49.6905 710.459 49.6905C711.724 49.6905 712.335 49.1734 712.826 48.0034L713.295 46.8328L708.513 34.8829H710.647L714.281 44.4923H714.327L717.961 34.8829H720L714.702 48.1156C713.858 50.2081 712.897 51.3334 710.482 51.3334C709.38 51.3334 708.701 51.1988 708.162 51.0411ZM704.762 39.8115C704.598 37.696 703.544 36.2557 701.503 36.2557C699.84 36.2557 698.269 37.3589 697.988 39.8115H704.762ZM695.924 40.8238C695.924 36.5033 698.925 34.6361 701.527 34.6361C704.458 34.6361 706.685 36.6161 706.685 40.9143V41.3194H697.941C698.011 43.9975 699.628 45.4378 701.668 45.4378C703.449 45.4378 704.458 44.7397 705.395 43.5024L706.567 44.4923C705.418 46.068 703.847 47.0129 701.527 47.0129C698.597 47.0129 695.924 44.9644 695.924 40.8238V40.8238ZM681.577 46.7651V30.1121H683.639V38.7091L691.494 30.1121H693.979L688.023 36.4587L694.798 46.7651H692.431L686.664 37.9661L683.639 41.1388V46.7651H681.577" fill="#878B8C"/>
<path d="M694.842 23.4735C694.494 23.4735 693.964 23.4735 693.964 23.4735V22.5918C693.964 22.5918 694.732 22.5918 694.845 22.5918C695.195 22.5918 695.446 22.7156 695.446 23.0165C695.446 23.3184 695.187 23.4735 694.842 23.4735ZM695.206 21.7961C694.876 21.7961 694.421 21.7961 693.964 21.7961C693.125 21.7961 692.295 21.7961 692.295 21.7961V25.6803H693.964V24.3014C693.964 24.3014 694.581 24.3014 695.056 24.3014C695.563 24.3014 695.993 24.264 696.385 24.1061C696.841 23.922 697.175 23.6057 697.175 23.0307C697.175 21.9721 696.202 21.7961 695.206 21.7961V21.7961ZM680.206 21.7961H684.372V22.5918H682.048V23.3184H684.372V24.0699H682.048V24.829H684.372V25.6803H680.206V21.7961ZM665.786 24.0362L666.414 22.7834L667.039 24.0362H665.786ZM665.34 21.7961L663.269 25.6803H664.968L665.349 24.9155H667.478L667.86 25.6803H669.659L667.588 21.7961H665.34ZM674.74 21.7961H676.408V25.6803H674.488L672.027 23.4883V25.6803H670.358V21.7961H672.257L674.74 23.9968V21.7961ZM700.648 23.5438C700.304 23.5438 699.658 23.5438 699.658 23.5438V22.6239C699.658 22.6239 700.54 22.6239 700.651 22.6239C701.004 22.6239 701.256 22.7868 701.256 23.0885C701.256 23.3902 700.996 23.5438 700.648 23.5438ZM702.98 23.0307C702.98 21.9721 702.01 21.7961 701.015 21.7961C700.665 21.7961 700.157 21.7961 699.658 21.7961C698.812 21.7961 697.99 21.7961 697.99 21.7961V25.6803H699.658V24.2371H699.792L701.059 25.6803H703.403L701.698 24.1506C702.517 24.0172 702.98 23.6057 702.98 23.0307V23.0307ZM719.722 24.5229C719.722 24.9182 719.387 25.804 717.327 25.804C715.633 25.804 715.017 25.4752 714.653 25.2804L715.195 24.5859C715.903 24.8523 716.457 24.864 716.861 24.8597C717.289 24.8539 717.689 24.7775 717.694 24.524C717.7 24.2591 717.427 24.1961 716.781 24.149C716.183 24.1053 714.87 23.9453 714.861 23.0307C714.85 22.1404 715.836 21.7072 717.251 21.7072C718.021 21.7072 718.967 21.8202 719.635 22.1653L719.06 22.8482C718.538 22.6714 718.136 22.6336 717.735 22.6336C717.298 22.6336 716.85 22.7087 716.85 22.9977C716.85 23.2884 717.314 23.2978 717.643 23.3345C718.066 23.3827 718.611 23.3902 719.049 23.5775C719.573 23.8018 719.722 24.1109 719.722 24.5229V24.5229ZM714.11 24.5229C714.11 24.9182 713.771 25.804 711.712 25.804C710.02 25.804 709.482 25.4752 709.121 25.2804L709.581 24.5859C710.29 24.8523 710.845 24.864 711.247 24.8597C711.677 24.8539 712.077 24.7775 712.079 24.524C712.083 24.2591 711.811 24.1961 711.166 24.149C710.569 24.1053 709.336 23.9453 709.327 23.0307C709.316 22.1404 710.219 21.7072 711.639 21.7072C712.407 21.7072 713.355 21.8202 714.02 22.1653L713.448 22.8482C712.923 22.6714 712.523 22.6336 712.12 22.6336C711.683 22.6336 711.237 22.7087 711.237 22.9977C711.237 23.2884 711.699 23.2978 712.03 23.3345C712.452 23.3827 712.996 23.3902 713.437 23.5775C713.961 23.8018 714.11 24.1109 714.11 24.5229ZM704.174 21.7961H708.341V22.5918H706.016V23.3184H708.341V24.0699H706.016V24.829H708.341V25.6803H704.174V21.7961ZM689.557 23.6765L691.429 25.6803H689.441L688.348 24.4348L687.257 25.6803H685.266L687.144 23.6765L685.456 21.7961H687.477L688.348 22.8321L689.223 21.7961H691.244L689.557 23.6765ZM641.892 21.7961L642.87 25.6803H641.196L640.643 23.4795L639.573 25.6803H638.516L637.446 23.4795L636.893 25.6803H635.323L636.301 21.7961H638.094L639.046 23.7163L639.995 21.7961H641.892ZM631.286 24.0362L631.911 22.7834L632.537 24.0362H631.286ZM630.838 21.7961L628.768 25.6803H630.465L630.847 24.9155H632.976L633.358 25.6803H635.159L633.087 21.7961H630.838ZM643.757 21.7961H647.923V22.5918H645.6V23.3184H647.923V24.0699H645.6V24.829H647.923V25.6803H643.757V21.7961ZM655.273 21.7961H657.041V25.6803H655.273V21.7961ZM661.187 21.7037C661.929 21.7037 662.482 21.8076 662.785 21.9178V22.8699C662.476 22.7951 662.039 22.7043 661.478 22.7043C661.2 22.7043 659.892 22.7453 659.892 23.7696C659.892 24.7936 661.2 24.8041 661.478 24.8041C661.991 24.8041 662.476 24.714 662.785 24.6369V25.5922C662.482 25.7007 661.929 25.804 661.187 25.804C660.313 25.804 658.043 25.5778 658.043 23.7696C658.043 21.9617 660.313 21.7037 661.187 21.7037ZM651.805 23.5438C651.459 23.5438 650.815 23.5438 650.815 23.5438V22.6239C650.815 22.6239 651.696 22.6239 651.809 22.6239C652.16 22.6239 652.412 22.7868 652.412 23.0885C652.412 23.3902 652.151 23.5438 651.805 23.5438ZM654.137 23.0307C654.137 21.9721 653.165 21.7961 652.17 21.7961C651.821 21.7961 651.315 21.7961 650.815 21.7961C649.969 21.7961 649.145 21.7961 649.145 21.7961V25.6803H650.815V24.2371H650.948L652.216 25.6803H654.561L652.855 24.1506C653.673 24.0172 654.137 23.6057 654.137 23.0307" fill="#1F2C5B"/>
<path d="M25.0913 12.3377C13.326 12.3377 3.75372 21.9095 3.75372 33.6757C3.75372 45.4414 13.326 55.0141 25.0913 55.0141H114.029C125.794 55.0141 135.367 45.4414 135.367 33.6757C135.367 21.9095 125.794 12.3377 114.029 12.3377H25.0913Z" fill="white"/>
<path d="M25.0913 12.3378C13.326 12.3378 3.75378 21.9096 3.75378 33.6758C3.75378 45.4415 13.326 55.0142 25.0913 55.0142H114.03C125.794 55.0142 135.367 45.4415 135.367 33.6758C135.367 21.9096 125.794 12.3378 114.03 12.3378H25.0913ZM114.03 56.832H25.0913C12.3237 56.832 1.93643 46.4434 1.93643 33.6758C1.93643 20.9081 12.3237 10.5205 25.0913 10.5205H114.03C126.797 10.5205 137.184 20.9081 137.184 33.6758C137.184 46.4434 126.797 56.832 114.03 56.832" fill="#C8C7C7"/>
<path d="M103.361 30.1789C101.59 30.1789 100.153 28.7438 100.153 26.9722C100.153 25.1989 101.59 23.7633 103.361 23.7633C105.132 23.7633 106.57 25.1989 106.57 26.9722C106.57 28.7438 105.132 30.1789 103.361 30.1789ZM103.361 20.7178C99.9085 20.7178 97.1089 23.5179 97.1089 26.9722C97.1089 30.4247 99.9085 33.2227 103.361 33.2227C106.816 33.2227 109.614 30.4247 109.614 26.9722C109.614 23.5179 106.816 20.7178 103.361 20.7178Z" fill="#231F20"/>
<path d="M74.684 30.1789C72.9146 30.1789 71.4777 28.7438 71.4777 26.9722C71.4777 25.1989 72.9146 23.7633 74.684 23.7633C76.4573 23.7633 77.8929 25.1989 77.8929 26.9722C77.8929 28.7438 76.4573 30.1789 74.684 30.1789ZM74.684 20.7178C71.2315 20.7178 68.4322 23.5179 68.4322 26.9722C68.4322 30.4247 71.2315 33.2227 74.684 33.2227C78.1387 33.2227 80.9388 30.4247 80.9388 26.9722C80.9388 23.5179 78.1387 20.7178 74.684 20.7178Z" fill="#231F20"/>
<path d="M96.706 30.3536C96.3107 30.4687 95.7058 30.582 95.4756 30.582C94.407 30.582 94.1743 30.2138 94.1743 29.1909V23.4142H96.7308V21.0002H94.1743V17.5877H91.2979L90.6934 21.0002H88.6896V21.0019H88.5266C86.8879 21.0098 85.6519 22.0095 84.8592 23.5754L83.859 21.0002H81.7963V32.9982H85.3216V27.778C85.3216 25.147 86.8761 23.466 88.7188 23.4142H90.6472V29.3787C90.6472 32.1863 92.0863 33.2305 94.4297 33.2305C95.6391 33.2305 96.5661 32.9751 97.1222 32.7907L96.706 30.3536Z" fill="#231F20"/>
<path d="M113.885 24.7961V32.9982H110.458V21.0002H112.538L113.235 22.8328" fill="#231F20"/>
<path d="M113.22 22.8441C114.262 21.6351 115.687 20.7195 117.357 20.7195C120.213 20.7195 121.387 22.9958 121.387 25.1069V32.9982H117.858V25.2084C117.858 24.1799 117.002 23.6216 116.073 23.6216C115.085 23.6216 114.45 24.1877 113.891 24.7922" fill="#231F20"/>
<path d="M54.6808 16.6572H58.6092L64.0038 26.932V16.6572H67.2576V33.0003H63.6982L57.9359 21.7027V33.0003H54.6808V16.6572Z" fill="#231F20"/>
<path d="M131.798 10.521V11.1063H130.942V13.9849H130.274V11.1063H129.434V10.521H131.798Z" fill="#A7A5A6"/>
<path d="M132.278 13.9849V10.521H133.182L133.782 12.7894L134.393 10.521H135.307V13.9849H134.756V11.275H134.74L134.04 13.9849H133.551L132.844 11.275H132.829V13.9849H132.278Z" fill="#A7A5A6"/>
<path d="M53.7001 47.4828L54.5155 46.2145C55.178 46.704 56.1721 47.1585 57.3845 47.1585C58.5629 47.1585 59.2903 46.6246 59.2903 45.6977C59.2903 44.6312 58.3712 44.3488 56.8606 43.8232C55.5061 43.3473 54.1743 42.6639 54.1743 40.745C54.1743 38.9469 55.5924 37.9676 57.5 37.9676C58.7682 37.9676 59.7026 38.2173 60.4552 38.6605L59.8028 40.0098C59.1713 39.6817 58.4169 39.459 57.5305 39.459C56.4675 39.459 55.8304 39.8599 55.8304 40.7028C55.8304 41.6929 56.5691 41.9444 57.9585 42.4011C59.4075 42.871 61.0022 43.5412 61.0022 45.6671C61.0022 47.4658 59.7165 48.6516 57.4098 48.6516C55.6979 48.6516 54.4406 48.0606 53.7001 47.4828Z" fill="#A7A5A6"/>
<path d="M64.0959 38.131H70.2723V39.5665H65.8536V42.4011H69.3432V43.8057H65.8536V47.0817H70.5408V48.5151H64.0959V38.131Z" fill="#A7A5A6"/>
<path d="M73.0549 43.332C73.0549 40.3018 74.5057 37.9702 77.4017 37.9702C78.6987 37.9702 79.7237 38.3807 80.4454 39.2214L79.4204 40.4073C78.8007 39.8006 78.2751 39.5034 77.4305 39.5034C75.7303 39.5034 74.9454 40.8945 74.9454 43.4645C74.9454 45.8768 75.7739 47.0992 77.4457 47.0992C78.3744 47.0992 79.0269 46.6116 79.5991 46.0053L80.6337 47.1585C79.8811 48.0471 78.9388 48.6516 77.4305 48.6516C74.4443 48.6516 73.0549 46.3753 73.0549 43.332Z" fill="#A7A5A6"/>
<path d="M83.4966 44.541V38.131H85.2677V44.8269C85.2677 46.2546 85.6212 47.189 87.1278 47.189C88.6209 47.189 88.9909 46.2546 88.9909 44.8269V38.131H90.7795V44.541C90.7795 47.1141 89.7893 48.6516 87.1143 48.6516C84.4832 48.6516 83.4966 47.1141 83.4966 44.541Z" fill="#A7A5A6"/>
<path d="M97.6269 42.7562C98.9435 42.7562 99.6207 42.3282 99.6207 41.1288C99.6207 39.9757 98.9299 39.5647 97.7301 39.5647H96.061V42.7562H97.6269ZM101.617 48.5172H99.6957L97.7018 44.1129H96.061V48.5172H94.3029V38.1313H97.6905C99.7876 38.1313 101.425 38.8835 101.425 41.1593C101.425 42.7121 100.494 43.4914 99.4577 43.8618L101.617 48.5172Z" fill="#A7A5A6"/>
<path d="M104.624 38.131H110.8V39.5665H106.38V42.4011H109.865V43.8057H106.38V47.0817H111.064V48.5151H104.624V38.131Z" fill="#A7A5A6"/>
<path d="M116.524 47.0819C118.949 47.0819 119.777 45.9631 119.777 43.2859C119.777 40.9369 119.127 39.5645 116.743 39.5645H115.799V47.0819H116.524ZM114.033 38.1311H116.626C120.011 38.1311 121.638 39.9637 121.638 43.2859C121.638 46.6709 119.983 48.517 116.716 48.517H114.033V38.1311Z" fill="#A7A5A6"/>
<path d="M24.9849 16.5957C20.4249 16.5957 16.1356 18.3729 12.9058 21.5988C9.6799 24.8265 7.90308 29.1158 7.90308 33.6757C7.90308 38.2348 9.6799 42.5241 12.9058 45.7539C16.1335 48.9776 20.4228 50.7549 24.9849 50.7566C29.5444 50.7549 33.8337 48.9776 37.0635 45.7517C40.2855 42.5241 42.0628 38.2348 42.0645 33.6757C42.0628 29.1158 40.2855 24.8265 37.0618 21.5971C33.8319 18.3729 29.5426 16.5957 24.9849 16.5957ZM24.9849 58.6602C11.2096 58.6602 0 47.4505 0 33.6757C0 19.9005 11.2096 8.69302 24.9849 8.69302C38.7584 8.69302 49.9654 19.9005 49.9676 33.6757C49.9654 47.4505 38.7584 58.6602 24.9849 58.6602Z" fill="#FBBC09"/>
<path d="M54.1471 4.84499H52.1995V6.79309H54.1471V4.84499Z" fill="#FBBC09"/>
<path d="M54.1471 0.962836H52.1995V2.91486H54.1471V0.962836Z" fill="#FBBC09"/>
<path d="M48.5378 6.7792H46.7187V8.68109H48.5378V6.7792Z" fill="#FBBC09"/>
<path d="M44.9471 10.5142H43.1124V12.3333H44.9471V10.5142Z" fill="#231F20"/>
<path d="M50.5774 8.68161H48.5374V10.5142H50.5774V8.68161Z" fill="#231F20"/>
<path d="M41.2855 10.5142H43.1124V8.77138H41.2855V10.5142Z" fill="#231F20"/>
<path d="M48.5378 10.5142H46.7187V12.3333H48.5378V10.5142Z" fill="#231F20"/>
<path d="M52.1995 2.91443H50.2723V4.84509H52.1995V2.91443Z" fill="#231F20"/>
<path d="M50.2723 4.84508H46.7187V6.77924H50.2723V4.84508Z" fill="#231F20"/>
<path d="M44.9471 10.5142H46.7183V6.77972H44.9471V10.5142Z" fill="#231F20"/>
<path d="M44.9473 12.3332V14.1663H43.1125V12.3332H40.0688V13.6538H38.4375V15.2828H40.2588V17.0985H38.4375V15.2828H36.5012V18.1309H34.6703V19.9483H33.4557V21.7734H32.1195C30.619 24.0053 26.8575 30.9622 25.7217 33.7945C21.6224 28.091 18.4406 25.8305 15.9342 25.0129C14.5831 24.6058 12.9541 26.078 15.199 28.3944C20.3555 34.0652 21.9794 38.7607 23.547 42.5065C24.3764 44.4816 28.0934 44.7889 28.84 42.7771C30.4272 38.5266 32.7283 33.7505 35.4535 29.8278V27.7955H36.9082V25.9625H38.4375V23.8383H40.2645V21.7904H38.4166V19.9291H40.2645V21.7904H42.0722L42.0687 19.9483H43.5174V17.7243H45.1486V16.1946H46.7184V12.3332H44.9473Z" fill="#231F20"/>
<path d="M14.4844 70.2202V70.198C14.4844 69.0457 13.7043 68.2878 12.7773 68.2878C11.8503 68.2878 11.0362 69.0566 11.0362 70.198V70.2202C11.0362 71.3734 11.8503 72.1321 12.7773 72.1321C13.7148 72.1321 14.4844 71.3965 14.4844 70.2202ZM9.70264 67.2249H11.0707V68.2207C11.5113 67.5984 12.1327 67.1007 13.0942 67.1007C14.5071 67.1007 15.8747 68.2207 15.8747 70.198V70.2202C15.8747 72.1993 14.518 73.3176 13.0942 73.3176C12.111 73.3176 11.489 72.8207 11.0707 72.2664V75.0033H9.70264V67.2249Z" fill="#A7A5A6"/>
<path d="M21.9865 70.2431V70.22C21.9865 69.1688 21.229 68.2989 20.1552 68.2989C19.0578 68.2989 18.3574 69.1579 18.3574 70.1978V70.22C18.3574 71.2603 19.1149 72.1428 20.1774 72.1428C21.2853 72.1428 21.9865 71.272 21.9865 70.2431ZM16.989 70.2431V70.22C16.989 68.5142 18.3461 67.1004 20.1774 67.1004C22.0087 67.1004 23.3541 68.4911 23.3541 70.1978V70.22C23.3541 71.9166 21.9978 73.3295 20.1552 73.3295C18.3348 73.3295 16.989 71.9397 16.989 70.2431Z" fill="#A7A5A6"/>
<path d="M24.0141 67.2246H25.4166L26.6142 71.3182L27.9369 67.2023H29.1014L30.435 71.3182L31.6561 67.2246H33.0237L31.0686 73.2393H29.8471L28.5139 69.1578L27.1677 73.2393H25.9478L24.0141 67.2246Z" fill="#A7A5A6"/>
<path d="M38.1466 69.7911C38.0564 68.9095 37.5365 68.2205 36.6317 68.2205C35.795 68.2205 35.2079 68.865 35.0833 69.7911H38.1466ZM33.7261 70.2322V70.2091C33.7261 68.5024 34.9364 67.1004 36.643 67.1004C38.5423 67.1004 39.5033 68.5926 39.5033 70.3119C39.5033 70.4357 39.492 70.5599 39.4811 70.6959H35.0946C35.2415 71.6673 35.9305 72.2104 36.8126 72.2104C37.4798 72.2104 37.9549 71.9624 38.429 71.4987L39.2314 72.2104C38.6665 72.8885 37.8864 73.3295 36.7904 73.3295C35.0606 73.3295 33.7261 72.0739 33.7261 70.2322" fill="#A7A5A6"/>
<path d="M40.9278 67.2247H42.2958V68.5697C42.6684 67.6775 43.3579 67.0674 44.4091 67.1114V68.5588H44.3306C43.1317 68.5588 42.2958 69.3393 42.2958 70.9222V73.1941H40.9278V67.2247Z" fill="#A7A5A6"/>
<path d="M49.6238 69.7911C49.5336 68.9095 49.0136 68.2205 48.1089 68.2205C47.2721 68.2205 46.6851 68.865 46.5613 69.7911H49.6238ZM45.2033 70.2322V70.2091C45.2033 68.5024 46.414 67.1004 48.1207 67.1004C50.0199 67.1004 50.9805 68.5926 50.9805 70.3119C50.9805 70.4357 50.9691 70.5599 50.9587 70.6959H46.5718C46.7191 71.6673 47.4085 72.2104 48.2898 72.2104C48.9574 72.2104 49.4325 71.9624 49.9066 71.4987L50.7094 72.2104C50.1437 72.8885 49.364 73.3295 48.268 73.3295C46.5382 73.3295 45.2033 72.0739 45.2033 70.2322" fill="#A7A5A6"/>
<path d="M56.9178 70.2201V70.1979C56.9178 69.0456 56.1037 68.2877 55.188 68.2877C54.2497 68.2877 53.47 69.0116 53.47 70.1979V70.2201C53.47 71.3733 54.261 72.132 55.188 72.132C56.1037 72.132 56.9178 71.3624 56.9178 70.2201ZM52.0907 70.2201V70.1979C52.0907 68.2206 53.4356 67.1005 54.8598 67.1005C55.843 67.1005 56.4649 67.5982 56.8947 68.1517V64.9411H58.2631V73.1941H56.8947V72.1991C56.4541 72.8206 55.8321 73.3174 54.8598 73.3174C53.4583 73.3174 52.0907 72.1991 52.0907 70.2201Z" fill="#A7A5A6"/>
<path d="M68.1383 70.2201V70.1979C68.1383 69.0456 67.3577 68.2877 66.4312 68.2877C65.5038 68.2877 64.6901 69.0565 64.6901 70.1979V70.2201C64.6901 71.3733 65.5038 72.132 66.4312 72.132C67.3691 72.132 68.1383 71.3964 68.1383 70.2201ZM64.7241 72.2663V73.1941H63.3561V64.9411H64.7241V68.2206C65.1647 67.5982 65.7866 67.1005 66.7476 67.1005C68.1605 67.1005 69.5285 68.2206 69.5285 70.1979V70.2201C69.5285 72.1991 68.1714 73.3174 66.7476 73.3174C65.7644 73.3174 65.1425 72.8206 64.7241 72.2663Z" fill="#A7A5A6"/>
<path d="M70.4604 74.6744L70.9228 73.6573C71.1721 73.7937 71.4427 73.8839 71.7256 73.8839C72.1108 73.8839 72.3475 73.7135 72.5732 73.1944L70.0869 67.2246H71.5443L73.2409 71.656L74.7898 67.2246H76.2136L73.8397 73.3635C73.3656 74.5842 72.8339 75.037 71.8725 75.037C71.2972 75.037 70.8788 74.9011 70.4604 74.6744Z" fill="#A7A5A6"/>
<path d="M80.2564 65.2806H81.7931L84.1792 71.3624L86.5522 65.2806H88.0562L84.7671 73.2504H83.5468L80.2564 65.2806Z" fill="#A20641"/>
<path d="M92.7563 69.7911C92.6661 68.9095 92.1461 68.2205 91.2418 68.2205C90.4051 68.2205 89.818 68.865 89.6934 69.7911H92.7563ZM88.3362 70.2322V70.2091C88.3362 68.5024 89.5461 67.1004 91.2536 67.1004C93.1529 67.1004 94.113 68.5926 94.113 70.3119C94.113 70.4357 94.1016 70.5599 94.0908 70.6959H89.7047C89.852 71.6673 90.5415 72.2104 91.4223 72.2104C92.0904 72.2104 92.5645 71.9624 93.0387 71.4987L93.8423 72.2104C93.2762 72.8885 92.497 73.3295 91.4 73.3295C89.6703 73.3295 88.3362 72.0739 88.3362 70.2322" fill="#A20641"/>
<path d="M95.5376 67.2247H96.9056V68.5697C97.2787 67.6775 97.9686 67.0674 99.0202 67.1114V68.5588H98.9409C97.7424 68.5588 96.9056 69.3393 96.9056 70.9222V73.1941H95.5376V67.2247Z" fill="#A20641"/>
<path d="M100.195 67.2247H101.563V73.1941H100.195V67.2247ZM100.138 65.0099H101.607V66.3086H100.138V65.0099Z" fill="#A20641"/>
<path d="M102.982 72.0417L103.818 71.0458C104.576 71.7022 105.333 72.0739 106.316 72.0739C107.176 72.0739 107.719 71.6791 107.719 71.0798V71.0567C107.719 70.4923 107.402 70.186 105.933 69.8482C104.248 69.4411 103.298 68.9443 103.298 67.4852V67.4621C103.298 66.1054 104.428 65.1675 106 65.1675C107.153 65.1675 108.069 65.5179 108.871 66.1625L108.126 67.2128C107.413 66.6816 106.7 66.3992 105.977 66.3992C105.163 66.3992 104.689 66.818 104.689 67.3379V67.361C104.689 67.9711 105.05 68.2427 106.567 68.6044C108.239 69.0114 109.109 69.6098 109.109 70.9225V70.9434C109.109 72.4256 107.944 73.3064 106.282 73.3064C105.073 73.3064 103.932 72.8884 102.982 72.0417Z" fill="#A20641"/>
<path d="M110.674 67.2247H112.041V73.1941H110.674V67.2247ZM110.617 65.0099H112.087V66.3086H110.617V65.0099Z" fill="#A20641"/>
<path d="M118.295 69.9266V69.9035C118.295 68.9212 117.493 68.253 116.543 68.253C115.594 68.253 114.848 68.9094 114.848 69.8935V69.9157C114.848 70.8993 115.605 71.5661 116.543 71.5661C117.493 71.5661 118.295 70.8884 118.295 69.9266ZM113.763 74.3135L114.271 73.2854C114.905 73.6803 115.583 73.9169 116.397 73.9169C117.618 73.9169 118.284 73.2854 118.284 72.086V71.6232C117.787 72.2665 117.165 72.7193 116.183 72.7193C114.78 72.7193 113.469 71.679 113.469 69.9266V69.9035C113.469 68.1406 114.791 67.1008 116.183 67.1008C117.188 67.1008 117.81 67.5645 118.274 68.1179V67.225H119.641V71.9727C119.641 72.979 119.382 73.7247 118.884 74.2224C118.342 74.765 117.505 75.0261 116.43 75.0261C115.448 75.0261 114.531 74.7768 113.763 74.3135" fill="#A20641"/>
<path d="M121.399 67.2247H122.766V68.1517C123.151 67.5873 123.703 67.1005 124.631 67.1005C125.977 67.1005 126.757 68.0053 126.757 69.3951V73.1941H125.388V69.8021C125.388 68.8752 124.925 68.3439 124.112 68.3439C123.319 68.3439 122.766 68.8983 122.766 69.8252V73.1941H121.399V67.2247Z" fill="#A20641"/>
<path fill-rule="evenodd" clip-rule="evenodd" d="M422.984 32.7075C422.984 31.3914 424.022 30.3183 425.269 30.3183C426.549 30.3183 427.553 31.3914 427.553 32.7075C427.553 34.0229 426.549 35.0959 425.269 35.0959C424.022 35.1304 422.984 34.0573 422.984 32.7075ZM425.269 34.5763C426.238 34.5763 427 33.7455 427 32.7419C427 31.7376 426.204 30.9069 425.269 30.9069C424.299 30.9069 423.537 31.7376 423.537 32.7419C423.537 33.7455 424.299 34.5763 425.269 34.5763ZM424.957 33.7806H424.472V31.6688H425.338C425.511 31.6688 425.719 31.6688 425.857 31.7727C426.03 31.8767 426.1 32.0839 426.1 32.2917C426.1 32.534 425.961 32.7419 425.753 32.8107L426.134 33.7455H425.615L425.303 32.9147H424.957V33.7806ZM424.957 32.6035H425.234C425.338 32.6035 425.442 32.6035 425.511 32.5691C425.58 32.534 425.615 32.4301 425.615 32.3262C425.615 32.2573 425.58 32.1534 425.511 32.119C425.442 32.0839 425.303 32.0839 425.234 32.0839H424.991L424.957 32.6035" fill="#FD0C15"/>
<path fill-rule="evenodd" clip-rule="evenodd" d="M390.268 16.7475L389.644 20.8327C388.294 20.1059 387.29 19.8285 386.217 19.8285C383.379 19.8285 381.371 22.7366 381.371 26.8569C381.371 29.6955 382.72 31.4266 384.936 31.4266C385.871 31.4266 386.91 31.1148 388.191 30.4568L387.533 34.7498C386.113 35.1655 385.213 35.3039 384.14 35.3039C380.02 35.3039 377.458 32.1879 377.458 27.2024C377.458 20.4865 380.989 15.7777 386.079 15.7777C386.736 15.7777 387.325 15.8473 387.81 15.9856L389.402 16.4013C389.818 16.5741 389.922 16.6092 390.268 16.7475Z" fill="#FD0C15"/>
<path fill-rule="evenodd" clip-rule="evenodd" d="M377.562 19.5518C377.458 19.5174 377.32 19.5174 377.182 19.5174C375.935 19.5174 375.208 20.1747 374.031 22.0098L374.377 19.6901H370.915L368.561 34.9577H372.404C373.789 25.6104 374.134 24.0176 375.969 24.0176C376.073 24.0176 376.108 24.0176 376.246 24.0176C376.592 22.1832 377.043 20.8327 377.701 19.5862L377.562 19.5518Z" fill="#FD0C15"/>
<path fill-rule="evenodd" clip-rule="evenodd" d="M354.678 34.7497C353.64 35.096 352.809 35.2687 351.943 35.2687C350.005 35.2687 348.932 34.0917 348.932 31.9111C348.932 31.4954 348.966 31.0108 349.036 30.5262L349.277 29.0374L349.451 27.826L351.112 17.4048H354.921L354.471 19.6556H356.444L355.89 23.3601L353.951 23.3595L352.947 29.7298C352.913 30.0065 352.878 30.2144 352.878 30.3528C352.878 31.1492 353.294 31.4954 354.194 31.4954C354.643 31.4954 354.955 31.461 355.232 31.357L354.678 34.7497" fill="#FD0C15"/>
<path fill-rule="evenodd" clip-rule="evenodd" d="M339.584 24.502C339.584 26.4409 340.484 27.7563 342.492 28.7606C344.015 29.5219 344.292 29.7641 344.292 30.4566C344.292 31.3913 343.6 31.8415 342.111 31.8415C340.969 31.8415 339.93 31.6687 338.684 31.2185L338.164 34.7496L338.338 34.7847L339.03 34.9231C339.272 34.9575 339.584 35.0263 340.034 35.0614C340.934 35.1303 341.661 35.1998 342.146 35.1998C346.162 35.1998 348.031 33.5726 348.031 30.1104C348.031 28.033 347.269 26.7872 345.331 25.8524C343.738 25.0905 343.566 24.9177 343.566 24.1908C343.566 23.3593 344.188 22.9443 345.434 22.9443C346.196 22.9443 347.201 23.0482 348.17 23.1866L348.724 19.6555C347.72 19.4821 346.231 19.3437 345.365 19.3437C341.038 19.3437 339.549 21.6633 339.584 24.502" fill="#FD0C15"/>
<path fill-rule="evenodd" clip-rule="evenodd" d="M420.768 34.9232H417.133L417.306 33.4344C416.268 34.6114 415.159 35.1304 413.775 35.1304C410.97 35.1304 409.135 32.6036 409.135 28.7951C409.135 23.7057 411.975 19.4133 415.367 19.4133C416.855 19.4133 417.964 20.0707 419.037 21.49L419.868 16.1239H423.642L420.768 34.9232V34.9232ZM415.125 31.357C416.925 31.357 418.172 29.2452 418.172 26.1988C418.172 24.2598 417.445 23.1867 416.129 23.1867C414.398 23.1867 413.152 25.3336 413.152 28.3105C413.152 30.3184 413.809 31.357 415.125 31.357" fill="#FD0C15"/>
<path fill-rule="evenodd" clip-rule="evenodd" d="M366.795 34.6112C365.479 35.0263 364.234 35.2341 362.849 35.2341C358.59 35.2341 356.34 32.8801 356.34 28.3799C356.34 23.117 359.179 19.2748 363.022 19.2748C366.172 19.2748 368.18 21.4554 368.18 24.8481C368.18 25.9563 368.041 27.0638 367.695 28.6221H360.079C360.045 28.8644 360.045 28.9684 360.045 29.1067C360.045 30.9067 361.187 31.807 363.403 31.807C364.753 31.807 365.999 31.4952 367.384 30.8378L366.795 34.6112V34.6112ZM364.649 25.5061C364.684 25.1943 364.684 24.9176 364.684 24.7442C364.684 23.4976 364.026 22.7715 362.883 22.7715C361.672 22.7715 360.806 23.7406 360.46 25.5061H364.649" fill="#FD0C15"/>
<path fill-rule="evenodd" clip-rule="evenodd" d="M324.213 34.9232H320.404L322.586 20.4864L317.67 34.9232H315.073L314.762 20.5903L312.442 34.9232H308.876L311.853 16.1589H317.358L317.496 27.7908L321.235 16.1589H327.19L324.213 34.9232Z" fill="#FD0C15"/>
<path fill-rule="evenodd" clip-rule="evenodd" d="M334.079 28.137C333.664 28.1026 333.491 28.0682 333.214 28.0682C331.033 28.0682 329.96 28.8645 329.96 30.3878C329.96 31.3225 330.514 31.9455 331.344 31.9455C332.868 31.9455 334.01 30.3878 334.079 28.137V28.137ZM336.849 34.9231H333.664L333.733 33.3304C332.764 34.6113 331.483 35.1654 329.717 35.1654C327.64 35.1654 326.221 33.4687 326.221 31.0107C326.221 27.2718 328.713 25.1256 332.937 25.1256C333.387 25.1256 333.941 25.16 334.495 25.2295C334.599 24.7099 334.633 24.502 334.633 24.2253C334.633 23.2211 333.976 22.8404 332.175 22.8404C331.102 22.8404 329.856 23.0132 328.99 23.2906L328.506 23.4633L328.16 23.5673L328.679 20.1401C330.583 19.5516 331.863 19.3094 333.248 19.3094C336.537 19.3094 338.268 20.867 338.268 23.7752C338.268 24.5371 338.199 25.0912 337.956 26.8216L337.195 32.2573L337.057 33.2264L336.953 33.9877L336.884 34.5418L336.849 34.9231" fill="#FD0C15"/>
<path fill-rule="evenodd" clip-rule="evenodd" d="M396.88 28.137C396.499 28.1026 396.292 28.0682 396.015 28.0682C393.833 28.0682 392.726 28.8645 392.726 30.3878C392.726 31.3225 393.28 31.9455 394.111 31.9455C395.668 31.9455 396.811 30.3878 396.88 28.137V28.137ZM399.65 34.9231H396.465L396.534 33.3304C395.564 34.6113 394.283 35.1654 392.518 35.1654C390.441 35.1654 389.021 33.4687 389.021 31.0107C389.021 27.2718 391.514 25.1256 395.737 25.1256C396.153 25.1256 396.741 25.16 397.296 25.2295C397.399 24.7099 397.434 24.502 397.434 24.2253C397.434 23.2211 396.777 22.8404 394.976 22.8404C393.903 22.8404 392.656 23.0132 391.791 23.2906L391.237 23.4289L390.891 23.5328L391.41 20.1057C393.314 19.5172 394.595 19.2749 395.98 19.2749C399.269 19.2749 401 20.8326 401 23.7407C401 24.502 400.931 25.0561 400.688 26.7872L399.892 32.1878L399.788 33.1576L399.685 33.9189L399.615 34.4385L399.65 34.9231" fill="#FD0C15"/>
<path fill-rule="evenodd" clip-rule="evenodd" d="M410.347 19.5518C410.244 19.5174 410.105 19.5174 409.967 19.5174C408.72 19.5174 407.993 20.1747 406.816 22.0098L407.163 19.6901H403.7L401.346 34.9577H405.189C406.573 25.6104 406.92 24.0176 408.755 24.0176C408.859 24.0176 408.859 24.0176 409.032 24.0176C409.378 22.1832 409.863 20.8327 410.486 19.5862L410.347 19.5518" fill="#FD0C15"/>
<path fill-rule="evenodd" clip-rule="evenodd" d="M394.283 49.775C394.283 53.2372 393.21 55.2795 391.514 55.2795C390.268 55.3139 389.54 53.929 389.54 51.8868C389.54 49.4632 390.648 46.6941 392.38 46.6941C393.799 46.6941 394.283 48.1822 394.283 49.775ZM398.058 49.8094C398.058 45.9665 396.153 42.9545 392.587 42.9545C388.467 42.9545 385.802 46.5902 385.802 51.9556C385.802 55.7991 387.394 58.9496 391.271 58.9496C395.184 58.9496 398.058 56.1798 398.058 49.8094Z" fill="#F3AE12"/>
<path fill-rule="evenodd" clip-rule="evenodd" d="M387.013 40.2886L386.425 44.3738C385.144 43.6476 384.244 43.3702 383.24 43.3702C380.574 43.3702 378.705 46.2783 378.705 50.3979C378.705 53.2366 379.951 54.9677 382.028 54.9677C382.928 54.9677 383.897 54.6565 385.075 53.9985L384.452 58.2916C383.136 58.7073 382.27 58.845 381.267 58.845C377.424 58.845 375 55.7296 375 50.7442C375 44.0282 378.323 39.3195 383.067 39.3195C383.69 39.3195 384.209 39.389 384.659 39.5273L386.113 39.9424C386.598 40.0814 386.702 40.1159 387.013 40.2886Z" fill="#F3AE12"/>
<path fill-rule="evenodd" clip-rule="evenodd" d="M363.368 43.0584C363.264 43.024 363.125 43.024 362.987 43.024C361.81 43.024 361.152 43.682 360.045 45.5164L360.391 43.1967H357.171L354.99 58.4643H358.556C359.837 49.1169 360.183 47.5242 361.88 47.5242C361.983 47.5242 361.983 47.5242 362.156 47.5593C362.467 45.7242 362.918 44.3738 363.506 43.1279L363.368 43.0584" fill="#F3AE12"/>
<path fill-rule="evenodd" clip-rule="evenodd" d="M410.036 58.3258H406.643L406.816 56.837C405.847 58.014 404.808 58.5337 403.492 58.5337C400.895 58.5337 399.165 56.0062 399.165 52.1984C399.165 47.109 401.831 42.816 404.981 42.816C406.366 42.816 407.439 43.474 408.408 44.9277L409.205 39.5616H412.736L410.036 58.3258V58.3258ZM404.739 54.7252C406.435 54.7252 407.578 52.6135 407.578 49.567C407.578 47.628 406.92 46.59 405.674 46.59C404.047 46.59 402.904 48.7018 402.904 51.7132C402.904 53.721 403.527 54.7252 404.739 54.7252Z" fill="#F3AE12"/>
<path fill-rule="evenodd" clip-rule="evenodd" d="M329.856 58.2565C328.644 58.6722 327.467 58.8801 326.186 58.8801C322.205 58.8801 320.128 56.526 320.128 52.0251C320.128 46.798 322.794 42.9201 326.359 42.9201C329.302 42.9201 331.172 45.0662 331.172 48.494C331.172 49.6022 331.033 50.7097 330.721 52.2674H323.624C323.59 52.5097 323.59 52.6136 323.59 52.752C323.59 54.5182 324.663 55.4178 326.74 55.4178C328.021 55.4178 329.163 55.106 330.444 54.4487L329.856 58.2565V58.2565ZM327.848 49.1514C327.848 48.8403 327.882 48.5635 327.882 48.3901C327.882 47.1436 327.259 46.4167 326.186 46.4167C325.044 46.4167 324.247 47.3859 323.901 49.1514H327.848Z" fill="#F3AE12"/>
<path fill-rule="evenodd" clip-rule="evenodd" d="M372.369 58.2565C371.157 58.6722 369.98 58.8801 368.699 58.8801C364.684 58.8801 362.606 56.526 362.606 52.0251C362.606 46.798 365.272 42.9201 368.838 42.9201C371.78 42.9201 373.685 45.0662 373.685 48.494C373.685 49.6022 373.547 50.7097 373.235 52.2674H366.138C366.102 52.5097 366.102 52.6136 366.102 52.752C366.102 54.5182 367.176 55.4178 369.254 55.4178C370.534 55.4178 371.677 55.106 372.957 54.4487L372.369 58.2565V58.2565ZM370.361 49.1514C370.395 48.8403 370.395 48.5635 370.395 48.3901C370.395 47.1436 369.773 46.4167 368.699 46.4167C367.557 46.4167 366.76 47.3859 366.414 49.1514H370.361Z" fill="#F3AE12"/>
<path fill-rule="evenodd" clip-rule="evenodd" d="M422.222 58.2565C420.976 58.6722 419.799 58.8801 418.552 58.8801C414.571 58.8801 412.459 56.526 412.459 52.0251C412.459 46.798 415.125 42.9201 418.726 42.9201C421.668 42.9201 423.537 45.0662 423.537 48.494C423.537 49.6022 423.399 50.7097 423.087 52.2674H415.99C415.956 52.5097 415.956 52.6136 415.956 52.752C415.956 54.5182 417.029 55.4178 419.106 55.4178C420.387 55.4178 421.53 55.106 422.811 54.4487L422.222 58.2565V58.2565ZM420.214 49.1514C420.214 48.8403 420.248 48.5635 420.248 48.3901C420.248 47.1436 419.625 46.4167 418.552 46.4167C417.41 46.4167 416.614 47.3859 416.268 49.1514H420.214Z" fill="#F3AE12"/>
<path fill-rule="evenodd" clip-rule="evenodd" d="M319.262 43.7495C318.569 43.2649 317.6 42.8842 316.285 42.8842C314.83 42.8842 313.688 43.1954 313.688 44.7186C313.688 47.4196 318.951 46.4153 318.951 52.2316C318.951 57.5282 315.488 58.9131 312.338 58.9131C310.953 58.9131 309.326 58.4629 308.149 57.9095L309.014 54.0315C309.742 54.6896 311.161 55.1397 312.372 55.1397C313.515 55.1397 315.246 54.8279 315.246 52.8545C315.246 49.7736 309.984 50.9155 309.984 45.515C309.984 40.5646 313.065 39.1102 316.042 39.1102C317.704 39.1102 319.297 39.3532 320.196 39.9761L319.262 43.7495" fill="#F3AE12"/>
<path fill-rule="evenodd" clip-rule="evenodd" d="M340.311 58.2563C339.584 58.6026 338.58 58.8455 337.126 58.8455C334.01 58.8455 332.071 55.7295 332.071 51.9211C332.071 46.9362 334.876 42.9895 338.995 42.9895C339.895 42.9895 341.28 43.3701 342.353 43.993L341.558 47.628C340.796 47.109 339.999 46.7979 339.169 46.7979C337.265 46.7979 335.88 48.5634 335.88 51.6788C335.88 53.4794 336.884 54.9676 338.442 54.9676C339.376 54.9676 340.034 54.7604 340.83 54.3102L340.311 58.2563" fill="#F3AE12"/>
<path fill-rule="evenodd" clip-rule="evenodd" d="M353.674 54.4137C353.501 55.7297 353.328 57.0107 353.224 58.3605H349.797L350.074 55.9032H350.039C348.966 57.5648 347.859 58.7074 345.884 58.7074C343.738 58.7074 342.561 56.4222 342.561 53.4796C342.561 52.441 342.63 51.8869 342.838 50.2941L343.808 43.232H347.651L346.612 50.3292C346.508 51.0905 346.37 51.8524 346.37 52.6482C346.37 53.5485 346.785 54.4488 347.823 54.3793C349.382 54.3793 350.316 52.4754 350.593 50.2253L351.666 43.232H355.371L353.674 54.4137" fill="#F3AE12"/>
<path fill-rule="evenodd" clip-rule="evenodd" d="M425.788 58.1876H425.199V55.6601H424.368V55.106H426.619V55.6601H425.788V58.1876" fill="#F3AE12"/>
<path fill-rule="evenodd" clip-rule="evenodd" d="M429.631 58.1876H429.077V55.6257L428.558 58.1876H428.003L427.484 55.6257V58.1876H426.93V55.106H427.796L428.281 57.5296H428.315L428.8 55.106H429.631V58.1876Z" fill="#F3AE12"/>
<path d="M550.004 40.8905L551.16 41.2371C551.083 41.5644 550.967 41.834 550.794 42.0458C550.621 42.2577 550.428 42.431 550.178 42.5272C549.927 42.6428 549.619 42.7005 549.234 42.7005C548.772 42.7005 548.406 42.6428 548.098 42.508C547.809 42.3732 547.559 42.1421 547.347 41.7955C547.135 41.4681 547.02 41.0253 547.02 40.5053C547.02 39.8121 547.212 39.273 547.578 38.8878C547.944 38.5027 548.483 38.3294 549.157 38.3294C549.696 38.3294 550.101 38.4449 550.409 38.6568C550.717 38.8686 550.948 39.1959 551.083 39.6581L549.927 39.9084C549.889 39.7736 549.85 39.6773 549.793 39.6196C549.716 39.5233 549.639 39.4463 549.523 39.3885C549.407 39.3307 549.292 39.3115 549.176 39.3115C548.888 39.3115 548.656 39.427 548.502 39.6773C548.387 39.8506 548.329 40.1395 548.329 40.5053C548.329 40.9675 548.406 41.2948 548.541 41.4682C548.676 41.6415 548.888 41.7377 549.138 41.7377C549.388 41.7377 549.581 41.6607 549.696 41.5259C549.85 41.3526 549.947 41.1601 550.004 40.8905Z" fill="#225E63"/>
<path d="M551.622 40.5026C551.622 39.8094 551.814 39.2702 552.2 38.8851C552.585 38.4999 553.124 38.3074 553.817 38.3074C554.53 38.3074 555.069 38.4999 555.454 38.8658C555.839 39.2509 556.032 39.7708 556.032 40.4641C556.032 40.9647 555.955 41.3691 555.781 41.6772C555.608 41.9853 555.377 42.2356 555.05 42.4089C554.741 42.5822 554.337 42.6785 553.875 42.6785C553.393 42.6785 553.008 42.6015 552.681 42.4474C552.373 42.2934 552.123 42.0623 551.911 41.7157C551.699 41.3691 551.622 41.0032 551.622 40.5026ZM552.931 40.5026C552.931 40.9262 553.008 41.2343 553.162 41.4269C553.316 41.6194 553.528 41.7157 553.817 41.7157C554.106 41.7157 554.318 41.6194 554.472 41.4461C554.626 41.2536 554.703 40.9262 554.703 40.4641C554.703 40.0597 554.626 39.7708 554.453 39.5975C554.299 39.405 554.067 39.3279 553.798 39.3279C553.528 39.3279 553.316 39.4242 553.162 39.6168C553.008 39.7708 552.931 40.0789 552.931 40.5026Z" fill="#225E63"/>
<path d="M556.706 38.3844H558.419L559.074 40.9647L559.729 38.3844H561.443V42.6207H560.364V39.3857L559.536 42.6207H558.573L557.745 39.3857V42.6207H556.667V38.3844H556.706Z" fill="#225E63"/>
<path d="M562.29 38.3844H564.466C564.947 38.3844 565.294 38.4999 565.525 38.731C565.756 38.9621 565.871 39.2702 565.871 39.6938C565.871 40.1174 565.737 40.4641 565.486 40.6951C565.236 40.9455 564.832 41.061 564.312 41.061H563.599V42.64H562.29V38.3844V38.3844ZM563.599 40.1945H563.927C564.177 40.1945 564.35 40.156 564.466 40.0597C564.562 39.9634 564.62 39.8671 564.62 39.7323C564.62 39.5975 564.581 39.482 564.485 39.3857C564.389 39.2894 564.235 39.2509 563.984 39.2509H563.618V40.1945H563.599Z" fill="#225E63"/>
<path d="M566.565 38.3844H567.874V41.5809H569.915V42.6207H566.565V38.3844Z" fill="#225E63"/>
<path d="M570.57 38.3844H571.879V42.6207H570.57V38.3844Z" fill="#225E63"/>
<path d="M575.422 41.9084H573.94L573.728 42.6016H572.399L573.997 38.3652H575.422L577.021 42.6016H575.654L575.422 41.9084ZM575.153 41.0033L574.691 39.4821L574.229 41.0033H575.153Z" fill="#225E63"/>
<path d="M577.425 38.3844H578.638L580.236 40.7336V38.3844H581.469V42.6207H580.236L578.657 40.2908V42.6207H577.425V38.3844V38.3844Z" fill="#225E63"/>
<path d="M582.047 38.3844H586.033V39.4242H584.704V42.6207H583.394V39.4242H582.066V38.3844H582.047Z" fill="#225E63"/>
<path d="M534.253 44.8351L538.046 43.6412L536.814 40.9068C535.909 42.043 535.004 43.5064 534.253 44.8351ZM532.963 32.3379L525.53 15.7776L471.112 18.8586L486.19 59.9896L515.209 50.843C513.36 48.1857 512.686 45.0277 514.824 43.4872C517.211 41.7541 520.812 43.7567 523.104 46.5874C525.318 42.8902 531.538 34.2828 532.963 32.3379Z" fill="#225E63"/>
<path d="M523.835 27.7453C526.107 27.7453 527.955 26.0122 527.955 23.8556C527.955 21.6989 526.107 19.9658 523.835 19.9658C521.562 19.9658 519.714 21.6989 519.714 23.8556C519.714 25.993 521.562 27.7453 523.835 27.7453ZM520.465 29.4206H527.204V47.0399H520.465V29.4206Z" fill="#FEFEFE"/>
<path d="M517.133 34.562C517.191 34.5813 517.23 34.562 517.23 34.5043V30.0368C517.23 29.9791 517.191 29.9213 517.133 29.8828C517.133 29.8828 516.248 29.3051 513.552 29.1511C513.417 29.074 511.048 29.0548 510.413 29.1511C500.592 29.9406 500.227 37.0461 500.227 37.3542V39.0872C500.227 39.299 500.227 46.5586 510.413 47.194C511.414 47.271 513.359 47.194 513.552 47.194C515.901 47.194 517.519 46.4815 517.519 46.4815C517.576 46.4623 517.615 46.4045 517.615 46.3468V42.1682C517.615 42.1104 517.576 42.0912 517.538 42.1297C517.538 42.1297 516.806 42.7074 513.61 43.0347C512.705 43.131 512.262 43.0925 511.934 43.0347C507.39 42.2645 507.178 38.9524 507.178 38.9524C507.178 38.8946 507.159 38.7984 507.159 38.7599V37.489C507.159 37.4312 507.159 37.3349 507.178 37.2964C507.178 37.2964 507.486 33.734 511.934 33.3489H513.61C515.554 33.5992 517.133 34.562 517.133 34.562Z" fill="#FEFEFE"/>
<path d="M481.51 46.9822C481.51 47.04 481.548 47.0785 481.606 47.0785H488.172C488.23 47.0785 488.269 47.04 488.269 46.9822V41.8601C488.269 41.8023 488.307 41.7638 488.365 41.7638C488.365 41.7638 498.859 42.5148 498.859 35.4863C498.859 29.9213 492.274 29.3244 490.117 29.4207C490.079 29.4207 481.606 29.4207 481.606 29.4207C481.548 29.4207 481.51 29.4592 481.51 29.5169V46.9822ZM488.153 37.8548V33.2526H489.771C489.771 33.2526 492.101 33.3489 492.293 34.9472C492.332 35.0627 492.332 35.8522 492.293 35.8907C491.985 37.7586 489.963 37.8548 489.963 37.8548H488.153Z" fill="#FEFEFE"/>
<path d="M524.028 55.5415C524.567 55.5415 524.991 55.5415 525.684 55.2334C528.072 53.9818 536.14 34.2828 544.651 28.2171C544.709 28.1786 544.767 28.1209 544.805 28.0631C544.863 27.9861 544.863 27.909 544.863 27.909C544.863 27.909 544.863 27.5047 543.611 27.5047C536.044 27.2928 528.168 43.1791 524.028 49.4566C523.97 49.5336 523.701 49.4566 523.701 49.4566C523.701 49.4566 520.928 46.1831 518.521 44.9314C518.463 44.9122 518.193 44.8159 517.905 44.8351C517.712 44.8351 516.595 45.0662 516.075 45.6054C515.459 46.2601 515.478 46.626 515.478 47.4155C515.478 47.4732 515.517 47.7428 515.594 47.8776C516.191 48.9174 518.867 52.6146 521.082 54.6558C521.409 54.9061 521.929 55.5415 524.028 55.5415Z" fill="#2BBC5D"/>
<path d="M546.885 22.2666H553.182C554.433 22.2666 555.435 22.4399 556.186 22.7673C556.956 23.1139 557.591 23.5953 558.073 24.2115C558.573 24.8469 558.939 25.5786 559.151 26.4067C559.382 27.2347 559.498 28.1205 559.498 29.064C559.498 30.5275 559.324 31.6636 558.997 32.4723C558.67 33.2811 558.208 33.9551 557.611 34.5135C557.014 35.0526 556.378 35.4185 555.704 35.6111C554.78 35.8614 553.933 35.9769 553.182 35.9769H546.885V22.2666V22.2666ZM551.121 25.3668V32.8575H552.161C553.047 32.8575 553.682 32.7612 554.048 32.5686C554.414 32.3761 554.722 32.0294 554.934 31.548C555.146 31.0666 555.261 30.2579 555.261 29.1603C555.261 27.6968 555.03 26.7148 554.549 26.1756C554.067 25.6364 553.297 25.3668 552.18 25.3668H551.121Z" fill="#225E63"/>
<path d="M560.672 31.452L564.716 31.2017C564.812 31.8564 564.986 32.3571 565.255 32.7037C565.698 33.2621 566.314 33.5317 567.123 33.5317C567.72 33.5317 568.201 33.3969 568.529 33.108C568.856 32.8192 569.029 32.4919 569.029 32.126C569.029 31.7794 568.875 31.452 568.567 31.1632C568.259 30.8743 567.527 30.624 566.391 30.3737C564.524 29.9501 563.214 29.3916 562.405 28.6984C561.597 28.0052 561.212 27.1194 561.212 26.0411C561.212 25.3286 561.423 24.6739 561.828 24.0384C562.232 23.403 562.848 22.9216 563.676 22.5557C564.504 22.1898 565.621 22.0165 567.046 22.0165C568.798 22.0165 570.146 22.3439 571.051 22.9986C571.976 23.6533 572.515 24.6931 572.688 26.1181L568.683 26.3492C568.567 25.733 568.356 25.2901 568.009 25.0012C567.662 24.7124 567.2 24.5776 566.603 24.5776C566.103 24.5776 565.737 24.6739 565.486 24.8857C565.236 25.0975 565.12 25.3478 565.12 25.6559C565.12 25.8678 565.217 26.0796 565.429 26.2529C565.621 26.4262 566.103 26.5995 566.854 26.7535C568.702 27.1579 570.031 27.5623 570.84 27.9667C571.648 28.3711 572.226 28.891 572.592 29.4879C572.958 30.0848 573.131 30.7781 573.131 31.5291C573.131 32.4148 572.881 33.2236 572.399 33.9553C571.918 34.7063 571.225 35.2647 570.358 35.6499C569.492 36.035 568.375 36.2275 567.046 36.2275C564.716 36.2275 563.099 35.7846 562.194 34.8796C561.308 33.9746 560.807 32.8385 560.672 31.452Z" fill="#225E63"/>
<path d="M574.209 31.452L578.253 31.2017C578.349 31.8564 578.523 32.3571 578.792 32.7037C579.235 33.2621 579.851 33.5317 580.66 33.5317C581.257 33.5317 581.738 33.3969 582.066 33.108C582.393 32.8192 582.566 32.4919 582.566 32.126C582.566 31.7794 582.412 31.452 582.104 31.1632C581.796 30.8743 581.064 30.624 579.928 30.3737C578.061 29.9501 576.751 29.3916 575.942 28.6984C575.153 28.0052 574.748 27.1194 574.748 26.0411C574.748 25.3286 574.96 24.6739 575.365 24.0384C575.769 23.403 576.385 22.9216 577.213 22.5557C578.041 22.1898 579.158 22.0165 580.583 22.0165C582.335 22.0165 583.683 22.3439 584.588 22.9986C585.513 23.6533 586.052 24.6931 586.225 26.1181L582.22 26.3492C582.104 25.733 581.892 25.2901 581.546 25.0012C581.199 24.7124 580.737 24.5776 580.14 24.5776C579.64 24.5776 579.274 24.6739 579.023 24.8857C578.773 25.0975 578.657 25.3478 578.657 25.6559C578.657 25.8678 578.754 26.0796 578.966 26.2529C579.158 26.4262 579.64 26.5995 580.391 26.7535C582.239 27.1579 583.568 27.5623 584.377 27.9667C585.185 28.3711 585.763 28.891 586.129 29.4879C586.495 30.0848 586.668 30.7781 586.668 31.5291C586.668 32.4148 586.418 33.2236 585.936 33.9553C585.455 34.7063 584.762 35.2647 583.895 35.6499C583.029 36.035 581.912 36.2275 580.583 36.2275C578.253 36.2275 576.636 35.7846 575.731 34.8796C574.826 33.9746 574.325 32.8385 574.209 31.452Z" fill="#225E63"/>
</svg>
