<svg width="16" height="16" viewBox="0 0 16 16" fill="none" xmlns="http://www.w3.org/2000/svg">
<g clip-path="url(#clip0)">
<path d="M12.6667 7.3335H3.33333C2.59695 7.3335 2 7.93045 2 8.66683V13.3335C2 14.0699 2.59695 14.6668 3.33333 14.6668H12.6667C13.403 14.6668 14 14.0699 14 13.3335V8.66683C14 7.93045 13.403 7.3335 12.6667 7.3335Z" stroke="white" stroke-width="1.5" stroke-linecap="round" stroke-linejoin="round"/>
<path d="M5 7V4.33333C5 3.44928 5.35119 2.60143 5.97631 1.97631C6.60143 1.35119 7.44928 1 8.33333 1C9.21739 1 10.0652 1.35119 10.6904 1.97631C11.3155 2.60143 11.6667 3.44928 11.6667 4.33333V7" stroke="white" stroke-width="1.5" stroke-linecap="round" stroke-linejoin="round"/>
</g>
<defs>
<clipPath id="clip0">
<rect width="16" height="16" fill="white" transform="translate(16 16) rotate(-180)"/>
</clipPath>
</defs>
</svg>
